<?xml version="1.0" encoding="utf-8"?>
<!-- Generator: Adobe Illustrator 16.2.1, SVG Export Plug-In . SVG Version: 6.00 Build 0)  -->
<!DOCTYPE svg PUBLIC "-//W3C//DTD SVG 1.1//EN" "http://www.w3.org/Graphics/SVG/1.1/DTD/svg11.dtd">
<svg version="1.1" id="Layer_1" xmlns="http://www.w3.org/2000/svg" xmlns:xlink="http://www.w3.org/1999/xlink" x="0px" y="0px"
	 width="768px" height="1024px" viewBox="0 0 768 1024" enable-background="new 0 0 768 1024" xml:space="preserve">
<rect x="-141.234" y="-61.019" width="1085.537" height="1122.126"/>
<path fill="#FFFFFF" d="M508.943,801.463c0,2.144-0.773,4.062-2.299,5.752c-1.525,1.681-3.538,2.525-5.969,2.525
	c-2.465,0-4.467-0.846-6.002-2.525c-1.525-1.69-2.3-3.608-2.3-5.752c0-2.156,0.773-4.062,2.3-5.741
	c1.535-1.691,3.537-2.55,6.002-2.55c2.431,0,4.432,0.857,5.969,2.55C508.17,797.4,508.943,799.33,508.943,801.463z"/>
<path fill="#FFFFFF" d="M184.033,745.767h-16.869v63.045H156.73v-63.045h-15.026v-8.743h15.026v-24.242
	c0-8.177,1.995-14.627,5.988-19.332c3.996-4.717,10.125-7.052,18.412-7.052c1.337,0,2.77,0.078,4.3,0.228
	c1.531,0.144,2.957,0.436,4.294,0.846l-1.849,9.201c-1.123-0.315-2.242-0.555-3.371-0.769c-1.123-0.196-2.409-0.31-3.838-0.31
	c-2.76,0-5.036,0.451-6.822,1.382c-1.798,0.929-3.171,2.237-4.148,3.93c-0.977,1.687-1.635,3.657-1.995,5.896
	c-0.357,2.252-0.536,4.658-0.536,7.214v23.009h16.875v8.743H184.033z"/>
<path fill="#FFFFFF" d="M250.274,762.357c0-6.193-1.647-10.803-4.914-13.863c-3.27-3.039-8.028-4.562-14.278-4.562
	c-4.288,0-8.275,0.773-11.953,2.299c-3.677,1.537-6.804,3.586-9.362,6.135l-5.828-6.896c2.957-2.965,6.873-5.42,11.732-7.385
	c4.854-1.906,10.354-2.883,16.497-2.883c3.889,0,7.513,0.524,10.898,1.608c3.377,1.06,6.334,2.668,8.892,4.823
	c2.561,2.156,4.559,4.859,5.988,8.123c1.438,3.287,2.153,7.111,2.153,11.507v31.444c0,2.787,0.095,5.623,0.298,8.601
	c0.208,2.967,0.506,5.468,0.908,7.528h-9.341c-0.307-1.739-0.563-3.646-0.763-5.683c-0.208-2.062-0.301-4.05-0.301-6.003h-0.31
	c-3.27,4.824-6.983,8.266-11.125,10.362c-4.145,2.097-9.13,3.155-14.966,3.155c-2.754,0-5.592-0.381-8.507-1.166
	c-2.918-0.75-5.578-2.025-7.975-3.765c-2.409-1.728-4.404-4.002-5.982-6.766c-1.593-2.774-2.385-6.146-2.385-10.173
	c0-5.526,1.409-9.922,4.219-13.139c2.817-3.24,6.575-5.658,11.283-7.254c4.702-1.584,10.104-2.607,16.178-3.072
	c6.092-0.453,12.406-0.68,18.942-0.68v-2.297H250.274L250.274,762.357z M247.201,772.912c-4.3,0-8.624,0.189-12.965,0.547
	c-4.348,0.369-8.293,1.072-11.819,2.145c-3.538,1.084-6.414,2.645-8.671,4.693c-2.263,2.049-3.374,4.752-3.374,8.123
	c0,2.572,0.488,4.705,1.453,6.443c0.974,1.751,2.281,3.145,3.922,4.217c1.631,1.071,3.439,1.857,5.443,2.287
	c1.995,0.477,4.014,0.715,6.062,0.715c3.684,0,6.953-0.645,9.812-1.931c2.861-1.274,5.276-3.001,7.203-5.217
	c1.944-2.181,3.433-4.705,4.446-7.601c1.03-2.834,1.531-5.859,1.531-9.039v-5.373h-3.043V772.912z"/>
<path fill="#FFFFFF" d="M307.501,739.096c4.243-2.62,8.972-3.906,14.192-3.906c1.938,0,3.964,0.18,6.054,0.607
	c2.099,0.404,4.148,1.201,6.149,2.381c2.001,1.181,3.83,2.74,5.524,4.683c1.691,1.931,3.142,4.431,4.369,7.517
	c2.45-4.92,5.804-8.672,10.05-11.281c4.237-2.619,9.276-3.905,15.112-3.905c9.106,0,15.932,2.69,20.48,8.123
	c4.551,5.42,6.826,12.578,6.826,21.476v44.049h-10.435v-39.771c0-7.552-1.405-13.639-4.217-18.248
	c-2.823-4.598-7.593-6.896-14.353-6.896c-3.779,0-6.971,0.764-9.585,2.3c-2.612,1.536-4.708,3.55-6.29,6.063
	c-1.59,2.5-2.742,5.336-3.457,8.504c-0.711,3.18-1.066,6.455-1.066,9.826v38.223h-10.427v-41.895c0-3.479-0.256-6.646-0.769-9.518
	c-0.512-2.883-1.408-5.312-2.691-7.289c-1.275-2.014-3.041-3.537-5.286-4.598c-2.251-1.084-5.116-1.621-8.582-1.621
	c-2.457,0-4.946,0.561-7.445,1.691c-2.507,1.133-4.752,2.835-6.745,5.122c-2.001,2.299-3.612,5.218-4.836,8.754
	c-1.227,3.515-1.837,7.695-1.837,12.509v36.815h-10.428v-56.017c0-1.918-0.066-4.432-0.152-7.504
	c-0.098-3.062-0.262-5.824-0.458-8.277h9.961c0.2,1.941,0.351,4.085,0.461,6.432c0.092,2.37,0.146,4.312,0.146,5.837h0.307
	C300.116,745.123,303.264,741.703,307.501,739.096z"/>
<path fill="#FFFFFF" d="M486.635,772.912c0,5.43-0.953,10.445-2.842,15.03c-1.9,4.61-4.531,8.589-7.902,11.972
	c-3.371,3.396-7.403,6.004-12.114,7.885c-4.71,1.931-9.874,2.871-15.496,2.871c-5.515,0-10.647-0.94-15.354-2.871
	c-4.705-1.881-8.754-4.489-12.112-7.885c-3.371-3.383-6.003-7.373-7.909-11.972c-1.87-4.585-2.823-9.601-2.823-15.03
	c0-5.408,0.947-10.424,2.823-15.021c1.906-4.609,4.538-8.588,7.909-11.971c3.37-3.383,7.409-6.016,12.112-7.896
	c4.705-1.906,9.84-2.835,15.354-2.835c5.622,0,10.786,0.929,15.496,2.835c4.698,1.882,8.749,4.514,12.114,7.896
	c3.371,3.383,6.002,7.36,7.902,11.971C485.692,762.488,486.635,767.504,486.635,772.912z M475.604,772.912
	c0-3.968-0.655-7.73-1.918-11.27c-1.286-3.525-3.098-6.6-5.467-9.207c-2.322-2.607-5.205-4.682-8.564-6.219
	c-3.389-1.535-7.182-2.299-11.352-2.299c-4.211,0-7.963,0.764-11.285,2.299c-3.329,1.537-6.17,3.609-8.522,6.219
	c-2.347,2.607-4.169,5.682-5.442,9.207c-1.27,3.538-1.918,7.29-1.918,11.27c0,4.002,0.638,7.754,1.918,11.291
	c1.273,3.514,3.097,6.586,5.442,9.207c2.358,2.608,5.199,4.657,8.522,6.135c3.322,1.478,7.087,2.215,11.285,2.215
	c4.192,0,7.969-0.737,11.352-2.215c3.371-1.478,6.242-3.537,8.564-6.135c2.375-2.621,4.191-5.693,5.467-9.207
	C474.948,780.666,475.604,776.914,475.604,772.912z"/>
<path fill="#FFFFFF" d="M577.706,808.812c-0.19-1.94-0.333-4.073-0.446-6.433c-0.09-2.357-0.137-4.312-0.137-5.836h-0.322
	c-2.043,4.205-5.365,7.623-9.957,10.207c-4.621,2.621-9.47,3.92-14.592,3.92c-9.111,0-15.919-2.691-20.486-8.135
	c-4.532-5.421-6.813-12.592-6.813-21.477v-44.036h10.429v39.735c0,3.787,0.315,7.207,0.93,10.291c0.596,3.074,1.65,5.705,3.133,7.91
	c1.488,2.19,3.473,3.905,5.984,5.133c2.502,1.227,5.67,1.834,9.453,1.834c2.756,0,5.438-0.559,8.058-1.68
	c2.597-1.132,4.919-2.834,6.974-5.134c2.049-2.286,3.688-5.217,4.901-8.755c1.228-3.525,1.835-7.693,1.835-12.495v-36.815h10.445
	v55.994c0,1.93,0.047,4.441,0.154,7.504c0.083,3.071,0.238,5.836,0.452,8.301h-9.993L577.706,808.812L577.706,808.812z"/>
<path fill="#FFFFFF" d="M647.805,754.057c-1.537-2.979-3.859-5.396-6.976-7.29c-3.114-1.894-6.682-2.835-10.672-2.835
	c-1.829,0-3.675,0.189-5.509,0.619c-1.848,0.394-3.473,1.072-4.914,1.966c-1.436,0.93-2.584,2.12-3.448,3.55
	c-0.869,1.43-1.31,3.12-1.31,5.05c0,3.384,1.394,5.979,4.145,7.767c2.764,1.774,7.111,3.3,13.066,4.527
	c8.469,1.737,14.729,4.239,18.784,7.562c4.037,3.322,6.032,7.812,6.032,13.436c0,4.098-0.792,7.562-2.363,10.352
	c-1.604,2.822-3.657,5.146-6.219,6.92c-2.561,1.787-5.455,3.074-8.678,3.848c-3.222,0.751-6.462,1.132-9.736,1.132
	c-5.433,0-10.697-1.106-15.807-3.37c-5.116-2.229-9.303-5.789-12.572-10.578l8.284-6.133c1.847,3.155,4.538,5.823,8.136,7.969
	c3.573,2.144,7.51,3.228,11.811,3.228c2.257,0,4.4-0.215,6.438-0.619c2.062-0.405,3.836-1.132,5.36-2.155
	c1.561-1.013,2.787-2.312,3.698-3.92c0.898-1.572,1.376-3.537,1.376-5.896c0-3.776-1.822-6.623-5.449-8.517
	c-3.627-1.895-8.874-3.646-15.717-5.289c-2.146-0.513-4.431-1.156-6.837-1.918c-2.383-0.773-4.609-1.906-6.658-3.383
	c-2.055-1.478-3.746-3.336-5.062-5.609c-1.328-2.239-1.994-5.039-1.994-8.434c0-3.682,0.709-6.812,2.162-9.434
	c1.428-2.609,3.328-4.753,5.729-6.444c2.418-1.668,5.158-2.919,8.219-3.752c3.073-0.821,6.242-1.239,9.523-1.239
	c4.996,0,9.855,1.145,14.572,3.383c4.688,2.24,8.22,5.408,10.577,9.506L647.805,754.057z"/>
<g>
	<path fill="#FFFFFF" d="M505.042,374.725c0-18.733-3.758-46.385-16.704-66.342c-11.453-17.652-27.76-33.447-49.641-33.447
		c-27.443,0-26.163,41.025-26.163,41.025v166.676C463.895,474.683,505.042,427.333,505.042,374.725z"/>
	<path fill="#FFFFFF" d="M396.264,168.686c-141.359,0-255.95,112.834-255.95,252.022c0,129.275,98.845,235.811,226.172,250.335
		c8.725,0.656,16.116-5.836,16.116-11.637l0.137-150.2c-68.921-7.167-122.62-64.558-122.62-134.328
		c0-65.023,40.263-120.282,107.409-128.447l-2.144,31.814c-40.266,7.594-74.177,50.307-74.177,96.632
		c0,52.82,39.864,100.194,91.531,107.853V315.959c0-20.291,6.998-69.183,55.077-69.183c23.197,0,50.574,17.887,66.458,36.752
		c13.222,15.705,30.249,48.335,30.249,91.35c0,69.555-53.374,126.789-121.988,134.245l-0.13,150.294
		c0,15.365,17.276,11.363,27.128,9.727c120.743-20.243,212.674-123.766,212.674-248.434
		C652.205,281.52,537.619,168.686,396.264,168.686z"/>
</g>
</svg>
